# xmcd
#
# Track frame offsets:
#	150
#	9062
#	18782
#	30092
#	38885
#	48157
#	57487
#	70457
#	79565
#	89760
#	100612
#	111870
#	123672
#	134577
#	143352
#	152170
#	163607
#	172242
#	183342
#	194202
#
# Disc length: 2691 seconds
#
# Revision: 0
# Processed by: cddbd v1.5.2PL0 Copyright (c) Steve Scherf et al.
# Submitted via: EZCDAudioConverter 1.3.4.1
#
DISCID=090a8114
DTITLE=Various Artist - Lost Legends Of Surf Guitar 2/4
DYEAR=2003
DGENRE=
TTITLE0=David Marks and The Marksmen - The Sheriff Of Noddingham
TTITLE1=Jan Davis - Fugitive
TTITLE2=The Surfaris - Jack The Ripper
TTITLE3=New Dimensions - Bongo Shutdown
TTITLE4=Jerry Cole and His Spacemen - Point Panic
TTITLE5=Gene "The Draggin' King" Moles - Burning Rubber
TTITLE6=The Trashmen - Stick Shift
TTITLE7=The Tornadoes - Shootin' Beavers
TTITLE8=David Marks and The Marksmen - Travelin'
TTITLE9=Jan Davis - Boss Machine
TTITLE10=Rhythm Rockers - Moondawg
TTITLE11=Jim Waller and The Deltas - Latin'ia
TTITLE12=The Del-Vettes - Ram Charger
TTITLE13=The Trashmen - Walk, Don't Run
TTITLE14=Jerry Cole and His Spacemen - Midnight Surfer
TTITLE15=The Tornadoes - The Gremmie (Part 1)
TTITLE16=New Dimensions - Chicky Run
TTITLE17=The Surfaris - Yep
TTITLE18=The Catalinas - Banzai Washout
TTITLE19=Scott Engel - Devil Surfer
EXTD=
EXTT0=
EXTT1=
EXTT2=
EXTT3=
EXTT4=
EXTT5=
EXTT6=
EXTT7=
EXTT8=
EXTT9=
EXTT10=
EXTT11=
EXTT12=
EXTT13=
EXTT14=
EXTT15=
EXTT16=
EXTT17=
EXTT18=
EXTT19=
PLAYORDER=
